<!-- Generated by boxdiagram from alias.wire.txt. Do not edit: change the JSON and re-run. -->
<svg xmlns="http://www.w3.org/2000/svg" viewBox="0 0 930 710" width="930" height="710">
<style>
:root{--bg:#ffffff;--text:#0f172a;--muted:#64748b;--edge:#475569;
--default-f:#ffffff;--default-s:#64748b;--service-f:#dbeafe;--service-s:#2563eb;
--store-f:#d1fae5;--store-s:#059669;--external-f:#fef3c7;--external-s:#d97706;
--client-f:#ede9fe;--client-s:#7c3aed;--queue-f:#fce7f3;--queue-s:#db2777}
@media (prefers-color-scheme: dark){:root{--bg:#0b1220;--text:#e5e7eb;--muted:#94a3b8;--edge:#94a3b8;
--default-f:#1e293b;--default-s:#94a3b8;--service-f:#1e3a5f;--service-s:#60a5fa;
--store-f:#064e3b;--store-s:#34d399;--external-f:#4a3410;--external-s:#fbbf24;
--client-f:#2e1f5e;--client-s:#a78bfa;--queue-f:#500724;--queue-s:#f472b6}}
text{font-family:"DejaVu Sans", Verdana, "Segoe UI", sans-serif}
.bg{fill:var(--bg)}
.cont{fill:var(--text);fill-opacity:.035;stroke:var(--text);stroke-opacity:.28;stroke-width:1.2}
.ctitle{font-size:12px;font-weight:700;fill:var(--muted);letter-spacing:.3px}
.node{stroke-width:1.5}
.lbl{font-size:14px;font-weight:600;fill:var(--text);text-anchor:middle}
.sub{font-size:11px;fill:var(--muted);text-anchor:middle}
.edge{fill:none;stroke:var(--edge);stroke-width:1.5;stroke-linejoin:round}
.dashed{stroke-dasharray:6 4}
.arrow{fill:var(--edge)}
.elbg{fill:var(--bg)}
.el{font-size:11px;fill:var(--muted);text-anchor:middle}
</style>
<defs><marker id="ah" viewBox="0 0 10 10" refX="10" refY="5" markerWidth="10" markerHeight="10" markerUnits="userSpaceOnUse" orient="auto-start-reverse"><path class="arrow" d="M0,1 L10,5 L0,9 z"/></marker></defs>
<rect class="bg" width="930" height="710"/>
<rect class="cont" x="50" y="50" width="500" height="110" rx="12"/>
<text class="ctitle" x="66" y="72">Clients</text>
<rect class="cont" x="630" y="50" width="190" height="230" rx="12"/>
<text class="ctitle" x="646" y="72">External</text>
<rect class="cont" x="50" y="360" width="830" height="300" rx="12"/>
<text class="ctitle" x="66" y="382">Platform</text>
<rect class="cont" x="290" y="410" width="330" height="230" rx="12"/>
<text class="ctitle" x="306" y="432">Services</text>
<path class="edge" d="M140,140 L140,410" marker-end="url(#ah)"/>
<path class="edge" d="M260,140 L260.0,374.0 Q260,380 254.0,380.0 L186.0,380.0 Q180,380 180.0,386.0 L180,410" marker-end="url(#ah)"/>
<path class="edge" d="M460,140 L460.0,364.0 Q460,370 454.0,370.0 L166.0,370.0 Q160,370 160.0,376.0 L160,410" marker-end="url(#ah)"/>
<path class="edge" d="M200,470 L200.0,484.0 Q200,490 206.0,490.0 L310,490" marker-end="url(#ah)"/>
<path class="edge" d="M200,410 L200.0,396.0 Q200,390 206.0,390.0 L474.0,390.0 Q480,390 480.0,396.0 L480,460" marker-end="url(#ah)"/>
<path class="edge" d="M470,490 L416.0,490.0 Q410,490 410.0,496.0 L410.0,584.0 Q410,590 404.0,590.0 L390,590" marker-end="url(#ah)"/>
<path class="edge" d="M600,490 L704.0,490.0 Q710,490 710.0,484.0 L710,470" marker-end="url(#ah)"/>
<path class="edge" d="M730,470 L730.0,584.0 Q730,590 724.0,590.0 L600,590" marker-end="url(#ah)"/>
<path class="edge" d="M390,610 L444.0,610.0 Q450,610 450.0,604.0 L450.0,386.0 Q450,380 456.0,380.0 L614.0,380.0 Q620,380 620.0,374.0 L620.0,136.0 Q620,130 626.0,130.0 L650,130" marker-end="url(#ah)"/>
<path class="edge" d="M600,610 L884.0,610.0 Q890,610 890.0,604.0 L890.0,256.0 Q890,250 884.0,250.0 L800,250" marker-end="url(#ah)"/>
<rect class="elbg" x="116.3" y="267.0" width="47.3" height="16.0" rx="3"/>
<text class="el" x="140.0" y="278.8">HTTPS</text>
<rect class="elbg" x="236.3" y="252.0" width="47.3" height="16.0" rx="3"/>
<text class="el" x="260.0" y="263.8">HTTPS</text>
<rect class="elbg" x="439.9" y="247.0" width="40.3" height="16.0" rx="3"/>
<text class="el" x="460.0" y="258.8">REST</text>
<rect class="elbg" x="238.6" y="482.0" width="32.8" height="16.0" rx="3"/>
<text class="el" x="255.0" y="493.8">JWT</text>
<rect class="elbg" x="319.5" y="382.0" width="40.9" height="16.0" rx="3"/>
<text class="el" x="340.0" y="393.8">gRPC</text>
<rect class="elbg" x="384.4" y="532.0" width="51.1" height="16.0" rx="3"/>
<text class="el" x="410.0" y="543.8">invoice</text>
<rect class="elbg" x="629.1" y="482.0" width="51.8" height="16.0" rx="3"/>
<text class="el" x="655.0" y="493.8">publish</text>
<rect class="elbg" x="634.0" y="582.0" width="61.9" height="16.0" rx="3"/>
<text class="el" x="665.0" y="593.8">consume</text>
<rect class="elbg" x="595.0" y="284.5" width="50.0" height="16.0" rx="3"/>
<text class="el" x="620.0" y="296.3">charge</text>
<rect class="elbg" x="869.1" y="314.0" width="41.8" height="16.0" rx="3"/>
<text class="el" x="890.0" y="325.8">SMTP</text>
<rect class="node" x="70" y="100" width="100" height="40" rx="8" style="fill:var(--client-f);stroke:var(--client-s)"/>
<text class="lbl" x="120.0" y="125.0">Web App</text>
<rect class="node" x="250" y="100" width="120" height="40" rx="8" style="fill:var(--client-f);stroke:var(--client-s)"/>
<text class="lbl" x="310.0" y="125.0">Mobile App</text>
<rect class="node" x="450" y="100" width="80" height="40" rx="8" style="fill:var(--client-f);stroke:var(--client-s)"/>
<text class="lbl" x="490.0" y="125.0">CLI</text>
<rect class="node" x="650" y="100" width="80" height="40" rx="8" style="fill:var(--external-f);stroke:var(--external-s)"/>
<text class="lbl" x="690.0" y="125.0">Stripe</text>
<rect class="node" x="650" y="220" width="150" height="40" rx="8" style="fill:var(--external-f);stroke:var(--external-s)"/>
<text class="lbl" x="725.0" y="245.0">Email Provider</text>
<rect class="node" x="70" y="410" width="140" height="60" rx="8" style="fill:var(--service-f);stroke:var(--service-s)"/>
<text class="lbl" x="140.0" y="437.5">API Gateway</text>
<text class="sub" x="140.0" y="453.0">routing, rate limits</text>
<rect class="node" x="310" y="460" width="80" height="40" rx="8" style="fill:var(--service-f);stroke:var(--service-s)"/>
<text class="lbl" x="350.0" y="485.0">Auth</text>
<rect class="node" x="470" y="460" width="130" height="40" rx="8" style="fill:var(--service-f);stroke:var(--service-s)"/>
<text class="lbl" x="535.0" y="485.0">Orders</text>
<rect class="node" x="310" y="580" width="80" height="40" rx="8" style="fill:var(--service-f);stroke:var(--service-s)"/>
<text class="lbl" x="350.0" y="605.0">Billing</text>
<rect class="node" x="470" y="580" width="130" height="40" rx="8" style="fill:var(--service-f);stroke:var(--service-s)"/>
<text class="lbl" x="535.0" y="605.0">Notifications</text>
<rect class="node" x="700" y="410" width="160" height="60" rx="8" style="fill:var(--queue-f);stroke:var(--queue-s)"/>
<text class="lbl" x="780.0" y="437.5">Message Queue</text>
<text class="sub" x="780.0" y="453.0">RabbitMQ</text>
</svg>
