<!-- Generated by boxdiagram from architecture.wire.txt. Do not edit: change the JSON and re-run. -->
<svg xmlns="http://www.w3.org/2000/svg" viewBox="0 0 1240 740" width="1240" height="740">
<style>
:root{--bg:#ffffff;--text:#0f172a;--muted:#64748b;--edge:#475569;
--default-f:#ffffff;--default-s:#64748b;--service-f:#dbeafe;--service-s:#2563eb;
--store-f:#d1fae5;--store-s:#059669;--external-f:#fef3c7;--external-s:#d97706;
--client-f:#ede9fe;--client-s:#7c3aed;--queue-f:#fce7f3;--queue-s:#db2777}
@media (prefers-color-scheme: dark){:root{--bg:#0b1220;--text:#e5e7eb;--muted:#94a3b8;--edge:#94a3b8;
--default-f:#1e293b;--default-s:#94a3b8;--service-f:#1e3a5f;--service-s:#60a5fa;
--store-f:#064e3b;--store-s:#34d399;--external-f:#4a3410;--external-s:#fbbf24;
--client-f:#2e1f5e;--client-s:#a78bfa;--queue-f:#500724;--queue-s:#f472b6}}
text{font-family:"DejaVu Sans", Verdana, "Segoe UI", sans-serif}
.bg{fill:var(--bg)}
.cont{fill:var(--text);fill-opacity:.035;stroke:var(--text);stroke-opacity:.28;stroke-width:1.2}
.ctitle{font-size:12px;font-weight:700;fill:var(--muted);letter-spacing:.3px}
.node{stroke-width:1.5}
.lbl{font-size:14px;font-weight:600;fill:var(--text);text-anchor:middle}
.sub{font-size:11px;fill:var(--muted);text-anchor:middle}
.edge{fill:none;stroke:var(--edge);stroke-width:1.5;stroke-linejoin:round}
.dashed{stroke-dasharray:6 4}
.arrow{fill:var(--edge)}
.elbg{fill:var(--bg)}
.el{font-size:11px;fill:var(--muted);text-anchor:middle}
</style>
<defs><marker id="ah" viewBox="0 0 10 10" refX="10" refY="5" markerWidth="10" markerHeight="10" markerUnits="userSpaceOnUse" orient="auto-start-reverse"><path class="arrow" d="M0,1 L10,5 L0,9 z"/></marker></defs>
<rect class="bg" width="1240" height="740"/>
<rect class="cont" x="50" y="50" width="1140" height="130" rx="12"/>
<text class="ctitle" x="66" y="72">labs64.io-workspace</text>
<rect class="cont" x="50" y="270" width="480" height="420" rx="12"/>
<text class="ctitle" x="66" y="292">Local deployment</text>
<rect class="cont" x="70" y="320" width="440" height="130" rx="12"/>
<text class="ctitle" x="86" y="342">labs64.io-helm-charts</text>
<rect class="cont" x="70" y="540" width="440" height="130" rx="12"/>
<text class="ctitle" x="86" y="562">k3d cluster (local)</text>
<rect class="cont" x="620" y="270" width="570" height="420" rx="12"/>
<text class="ctitle" x="636" y="292">AWS deployment (per env)</text>
<rect class="cont" x="640" y="320" width="530" height="130" rx="12"/>
<text class="ctitle" x="656" y="342">labs64.io-devops</text>
<rect class="cont" x="640" y="540" width="530" height="130" rx="12"/>
<text class="ctitle" x="656" y="562">AWS account</text>
<path class="edge" d="M590,130 L500,130" marker-end="url(#ah)"/>
<path class="edge" d="M500,110 L590,110" marker-end="url(#ah)"/>
<path class="edge dashed" d="M450,160 L450,370" marker-end="url(#ah)"/>
<path class="edge dashed" d="M460,160 L460.0,204.0 Q460,210 466.0,210.0 L954.0,210.0 Q960,210 960.0,216.0 L960,370" marker-end="url(#ah)"/>
<path class="edge dashed" d="M370,370 L370.0,196.0 Q370,190 376.0,190.0 L424.0,190.0 Q430,190 430.0,184.0 L430,160" marker-end="url(#ah)"/>
<path class="edge dashed" d="M1030,370 L1030.0,196.0 Q1030,190 1024.0,190.0 L486.0,190.0 Q480,190 480.0,184.0 L480,160" marker-end="url(#ah)"/>
<path class="edge" d="M230,400 L320,400" marker-end="url(#ah)"/>
<path class="edge" d="M370,590 L370,430" marker-end="url(#ah)"/>
<path class="edge" d="M800,400 L890,400" marker-end="url(#ah)"/>
<path class="edge" d="M850,620 L940,620" marker-end="url(#ah)"/>
<path class="edge" d="M1040,590 L1040,430" marker-end="url(#ah)"/>
<rect class="elbg" x="523.6" y="122.0" width="42.7" height="16.0" rx="3"/>
<text class="el" x="545.0" y="133.8">reads</text>
<rect class="elbg" x="522.3" y="90.0" width="45.4" height="16.0" rx="3"/>
<text class="el" x="545.0" y="101.8">writes</text>
<rect class="elbg" x="401.1" y="225.5" width="97.8" height="16.0" rx="3"/>
<text class="el" x="450.0" y="237.3">invokes --check</text>
<rect class="elbg" x="661.1" y="202.0" width="97.8" height="16.0" rx="3"/>
<text class="el" x="710.0" y="213.8">invokes --check</text>
<rect class="elbg" x="331.2" y="299.0" width="77.7" height="16.0" rx="3"/>
<text class="el" x="370.0" y="310.8">stdout JSON</text>
<rect class="elbg" x="991.2" y="299.0" width="77.7" height="16.0" rx="3"/>
<text class="el" x="1030.0" y="310.8">stdout JSON</text>
<rect class="elbg" x="277.6" y="502.0" width="184.8" height="16.0" rx="3"/>
<text class="el" x="370.0" y="513.8">reads: kubectl -o json, helm list</text>
<rect class="elbg" x="863.7" y="612.0" width="62.6" height="16.0" rx="3"/>
<text class="el" x="895.0" y="623.8">manages</text>
<rect class="elbg" x="974.7" y="502.0" width="130.6" height="16.0" rx="3"/>
<text class="el" x="1040.0" y="513.8">reads: kubectl -o json</text>
<rect class="node" x="410" y="100" width="90" height="60" rx="8" style="fill:var(--service-f);stroke:var(--service-s)"/>
<text class="lbl" x="455.0" y="135.0">Cockpit</text>
<rect class="node" x="590" y="100" width="230" height="60" rx="8" style="fill:var(--service-f);stroke:var(--service-s)"/>
<text class="lbl" x="705.0" y="127.5">registry/&lt;id&gt;/status.json</text>
<text class="sub" x="705.0" y="143.0">(gitignored)</text>
<rect class="node" x="90" y="370" width="140" height="60" rx="8" style="fill:var(--default-f);stroke:var(--default-s)"/>
<text class="lbl" x="160.0" y="397.5">this checkout</text>
<text class="sub" x="160.0" y="413.0">(git HEAD)</text>
<rect class="node" x="320" y="370" width="170" height="60" rx="8" style="fill:var(--service-f);stroke:var(--service-s)"/>
<text class="lbl" x="405.0" y="397.5">local-k8s adapter</text>
<text class="sub" x="405.0" y="413.0">just reconcile</text>
<rect class="node" x="90" y="590" width="400" height="60" rx="8" style="fill:var(--default-f);stroke:var(--default-s)"/>
<text class="lbl" x="290.0" y="617.5">Helm releases:</text>
<text class="sub" x="290.0" y="633.0">mock-oidc / keycloak, traefik, apps</text>
<rect class="node" x="660" y="370" width="140" height="60" rx="8" style="fill:var(--default-f);stroke:var(--default-s)"/>
<text class="lbl" x="730.0" y="397.5">this checkout</text>
<text class="sub" x="730.0" y="413.0">(git HEAD)</text>
<rect class="node" x="890" y="370" width="210" height="60" rx="8" style="fill:var(--service-f);stroke:var(--service-s)"/>
<text class="lbl" x="995.0" y="397.5">terraform-aws adapter</text>
<text class="sub" x="995.0" y="413.0">just reconcile env</text>
<rect class="node" x="660" y="590" width="190" height="60" rx="8" style="fill:var(--store-f);stroke:var(--store-s)"/>
<text class="lbl" x="755.0" y="617.5">Terraform state, S3</text>
<text class="sub" x="755.0" y="633.0">outputs + generated secrets</text>
<rect class="node" x="940" y="590" width="210" height="60" rx="8" style="fill:var(--default-f);stroke:var(--default-s)"/>
<text class="lbl" x="1045.0" y="617.5">EKS, RDS, ElastiCache,</text>
<text class="sub" x="1045.0" y="633.0">Amazon MQ, Secrets Manager</text>
</svg>
